<svg width="33" height="32" viewBox="0 0 33 32" fill="none" xmlns="http://www.w3.org/2000/svg">
<path d="M24.2461 2.19966C23.9833 0.946405 22.8422 0 21.4773 0C21.1653 0 20.9121 0.245812 20.9121 0.549916C20.9121 0.85402 21.1653 1.09983 21.4773 1.09983C22.4121 1.09983 23.1728 1.84002 23.1728 2.74958C23.1728 3.65914 22.4121 4.39933 21.4773 4.39933C21.1653 4.39933 20.9121 4.64514 20.9121 4.94924C20.9121 5.25335 21.1653 5.49916 21.4773 5.49916C22.8416 5.49916 23.9833 4.55275 24.2461 3.2995H31.6507V8.24874H1.13038V3.2995H9.04306H10.7386C11.0506 3.2995 11.3038 3.05368 11.3038 2.74958C11.3038 2.44548 11.0506 2.19966 10.7386 2.19966H9.71225C9.94624 1.56066 10.5679 1.09983 11.3038 1.09983C12.2387 1.09983 12.9994 1.84002 12.9994 2.74958C12.9994 3.65914 12.2387 4.39933 11.3038 4.39933C10.9918 4.39933 10.7386 4.64514 10.7386 4.94924C10.7386 5.25335 10.9918 5.49916 11.3038 5.49916C12.8621 5.49916 14.1298 4.2657 14.1298 2.74958C14.1298 1.23346 12.8621 0 11.3038 0C9.93946 0 8.79777 0.946405 8.53496 2.19966H0V9.34857V31.3452H32.7811V9.34857V2.19966H24.2461ZM31.6507 30.2454H1.13038V9.34857H31.6507V30.2454Z" fill="white"/>
<path d="M14.695 1.09983C15.6298 1.09983 16.3906 1.84002 16.3906 2.74958C16.3906 3.65914 15.6298 4.39933 14.695 4.39933C14.383 4.39933 14.1298 4.64514 14.1298 4.94924C14.1298 5.25335 14.383 5.49916 14.695 5.49916C16.2532 5.49916 17.521 4.2657 17.521 2.74958C17.521 1.23346 16.2532 0 14.695 0C14.383 0 14.1298 0.245812 14.1298 0.549916C14.1298 0.85402 14.383 1.09983 14.695 1.09983Z" fill="white"/>
<path d="M18.0862 1.09983C19.021 1.09983 19.7818 1.84002 19.7818 2.74958C19.7818 3.65914 19.021 4.39933 18.0862 4.39933C17.7742 4.39933 17.521 4.64514 17.521 4.94924C17.521 5.25335 17.7742 5.49916 18.0862 5.49916C19.6444 5.49916 20.9121 4.2657 20.9121 2.74958C20.9121 1.23346 19.6444 0 18.0862 0C17.7742 0 17.521 0.245812 17.521 0.549916C17.521 0.85402 17.7742 1.09983 18.0862 1.09983Z" fill="white"/>
<path d="M5.0868 13.7475H17.521C17.833 13.7475 18.0862 13.5017 18.0862 13.1976C18.0862 12.8935 17.833 12.6477 17.521 12.6477H5.0868C4.77481 12.6477 4.52161 12.8935 4.52161 13.1976C4.52161 13.5017 4.77481 13.7475 5.0868 13.7475Z" fill="white"/>
<path d="M27.6944 21.4465H19.2166C18.9046 21.4465 18.6514 21.6923 18.6514 21.9964C18.6514 22.3006 18.9046 22.5464 19.2166 22.5464H27.6944C28.0064 22.5464 28.2596 22.3006 28.2596 21.9964C28.2596 21.6923 28.0064 21.4465 27.6944 21.4465Z" fill="white"/>
<path d="M5.0868 18.1472H10.7387C11.0507 18.1472 11.3039 17.9014 11.3039 17.5973C11.3039 17.2932 11.0507 17.0474 10.7387 17.0474H5.0868C4.77481 17.0474 4.52161 17.2932 4.52161 17.5973C4.52161 17.9014 4.77481 18.1472 5.0868 18.1472Z" fill="white"/>
<path d="M27.6945 25.8459H22.0425C21.7306 25.8459 21.4774 26.0918 21.4774 26.3959C21.4774 26.7 21.7306 26.9458 22.0425 26.9458H27.6945C28.0064 26.9458 28.2597 26.7 28.2597 26.3959C28.2597 26.0918 28.0064 25.8459 27.6945 25.8459Z" fill="white"/>
<path d="M15.8254 17.5973C15.8254 17.9014 16.0786 18.1472 16.3906 18.1472H24.8684C25.1804 18.1472 25.4336 17.9014 25.4336 17.5973C25.4336 17.2932 25.1804 17.0474 24.8684 17.0474H16.3906C16.0786 17.0474 15.8254 17.2932 15.8254 17.5973Z" fill="white"/>
<path d="M13.9659 17.9879C14.0677 17.8834 14.1298 17.7405 14.1298 17.5975C14.1298 17.454 14.0677 17.311 13.9659 17.207C13.7568 17.0036 13.3725 17.0036 13.1634 17.207C13.0616 17.311 12.9995 17.454 12.9995 17.5975C12.9995 17.7405 13.0616 17.8834 13.1634 17.9879C13.2707 18.0919 13.4177 18.1474 13.5646 18.1474C13.7116 18.1474 13.8585 18.0919 13.9659 17.9879Z" fill="white"/>
<path d="M7.34753 21.9964C7.34753 22.3006 7.60074 22.5464 7.91273 22.5464H16.3906C16.7026 22.5464 16.9558 22.3006 16.9558 21.9964C16.9558 21.6923 16.7026 21.4465 16.3906 21.4465H7.91273C7.60074 21.4465 7.34753 21.6923 7.34753 21.9964Z" fill="white"/>
<path d="M5.0868 22.5469C5.23375 22.5469 5.3807 22.4864 5.48808 22.3874C5.58982 22.2829 5.65199 22.1399 5.65199 21.997C5.65199 21.8534 5.58982 21.7104 5.48808 21.612C5.27896 21.403 4.89463 21.403 4.68551 21.6065C4.58378 21.7104 4.52161 21.8534 4.52161 21.997C4.52161 22.1399 4.58378 22.2829 4.68551 22.3874C4.7929 22.4864 4.9342 22.5469 5.0868 22.5469Z" fill="white"/>
<path d="M27.6944 18.1474C27.8414 18.1474 27.9883 18.0919 28.0957 17.9879C28.2031 17.8834 28.2596 17.7405 28.2596 17.5975C28.2596 17.454 28.2031 17.311 28.0957 17.207C27.8809 17.0036 27.5022 17.0036 27.2931 17.207C27.1914 17.311 27.1292 17.454 27.1292 17.5975C27.1292 17.7405 27.1914 17.8834 27.2931 17.9879C27.4005 18.0919 27.5475 18.1474 27.6944 18.1474Z" fill="white"/>
<path d="M19.2166 25.8459H5.0868C4.77481 25.8459 4.52161 26.0918 4.52161 26.3959C4.52161 26.7 4.77481 26.9458 5.0868 26.9458H19.2166C19.5286 26.9458 19.7818 26.7 19.7818 26.3959C19.7818 26.0918 19.5286 25.8459 19.2166 25.8459Z" fill="white"/>
</svg>
